<?xml version="1.0" encoding="utf-8"?>
<!-- Generator: Adobe Illustrator 15.1.0, SVG Export Plug-In . SVG Version: 6.00 Build 0)  -->
<!DOCTYPE svg PUBLIC "-//W3C//DTD SVG 1.1//EN" "http://www.w3.org/Graphics/SVG/1.1/DTD/svg11.dtd">
<svg version="1.1" id="圖層_1" xmlns="http://www.w3.org/2000/svg" xmlns:xlink="http://www.w3.org/1999/xlink" x="0px" y="0px"
	 width="612px" height="792px" viewBox="0 0 612 792" enable-background="new 0 0 612 792" xml:space="preserve">
<rect x="105.5" y="202.5" fill="#FFFFFF" stroke="#000000" stroke-miterlimit="10" width="394" height="384"/>
<path d="M306,90C136.309,90,0,226.309,0,396c0,169.69,136.309,306,306,306c169.691,0,306-136.31,306-306
	C612,226.309,475.691,90,306,90z M350.509,401.563l104.318,104.318c2.782,2.782,4.173,6.954,4.173,9.736s-1.391,6.954-4.173,9.736
	l-19.473,19.473c-2.782,2.782-6.954,4.173-9.736,4.173c-4.173,0-6.954-1.391-9.736-4.173L311.563,440.509
	c-2.781-2.781-6.954-2.781-9.736,0L197.509,544.827c-2.782,2.782-6.955,4.173-9.736,4.173c-4.173,0-6.955-1.391-9.737-4.173
	l-19.473-19.473c-2.782-2.782-4.172-6.954-4.172-9.736s1.391-6.954,4.172-9.736l104.318-104.318c2.782-2.782,2.782-6.955,0-9.736
	L158.563,287.509c-2.782-2.782-4.172-6.955-4.172-9.737c0-2.782,1.391-6.954,4.172-9.736l19.473-19.473
	c2.782-2.782,6.955-4.172,9.737-4.172c2.782,0,6.954,1.391,9.736,4.172l104.318,104.318c2.782,2.782,6.955,2.782,9.736,0
	l104.318-104.318c2.782-2.782,6.954-4.172,9.736-4.172c4.173,0,6.954,1.391,9.736,4.172l19.473,19.473
	c2.782,2.782,4.173,6.955,4.173,9.736c0,2.782-1.391,6.955-4.173,9.737L350.509,391.827
	C347.728,393.218,347.728,398.781,350.509,401.563z"/>
</svg>
